<?xml version="1.0" encoding="UTF-8"?>
<svg height="16" width="16" xmlns="http://www.w3.org/2000/svg"><path d="M3.094.25A2.45 2.45 0 0 0 .656 2.688v8.124c0 1.324 1.18 2.416 2.5 2.436v.064a2.45 2.45 0 0 0 2.438 2.438H8.03a.814.814 0 0 0 0-1.625H5.594a.794.794 0 0 1-.813-.813V5.187c0-.463.35-.812.813-.812h4.539l2.773 2.773v.477a.814.814 0 0 0 1.625 0v-.813a.812.812 0 0 0-.238-.574l-3.102-3.101-.148-.149-2.5-2.5A.812.812 0 0 0 7.969.25zm0 1.625H7.63l.875.875H5.594a2.45 2.45 0 0 0-2.438 2.438v6.433c-.45-.018-.875-.358-.875-.809V2.688c0-.464.35-.813.813-.813zM11.28 9.25v2.438H8.844v1.624h2.437v2.438h1.625v-2.438h2.438v-1.624h-2.438V9.25z" fill="#2e3436"/></svg>
