<?xml version="1.0" encoding="UTF-8"?>
<svg height="16" width="16" xmlns="http://www.w3.org/2000/svg"><path d="M2.656.25C1.526.25.594 1.182.594 2.313v6.874c0 1.094 1.151 1.999 2.25 2.057v.193c0 1.127 1.123 2.057 2.25 2.063v.187c0 1.131.932 2.063 2.062 2.063H9.22a.689.689 0 0 0 0-1.375H7.156a.672.672 0 0 1-.687-.688V6.812c0-.392.295-.687.687-.687h3.84l2.348 2.348v.402a.688.688 0 0 0 1.375 0v-.688a.687.687 0 0 0-.201-.486l-2.65-2.65-.1-.1-2.15-2.15L7.267.45a.687.687 0 0 0-.487-.2zm0 1.375h3.84l.875.875H4.906c-1.13 0-2.062.932-2.062 2.063v5.302c-.384-.047-.875-.32-.875-.677V2.311c0-.392.295-.687.687-.687zm2.25 2.25h3.84l.875.875H7.156c-1.13 0-2.062.932-2.062 2.063v5.31c-.39-.006-.875-.297-.875-.685V4.561c0-.392.295-.687.687-.687zm7.063 6.375v2.063H9.906v1.374h2.063v2.063h1.375v-2.063h2.062v-1.374h-2.062V10.25z" fill="#2e3436"/></svg>
