<?xml version="1.0" encoding="UTF-8"?>
<svg height="128px" viewBox="0 0 128 128" width="128px" xmlns="http://www.w3.org/2000/svg" xmlns:xlink="http://www.w3.org/1999/xlink">
    <linearGradient id="a" gradientUnits="userSpaceOnUse" x1="12.000011" x2="116.000015" y1="116.000069" y2="116.000069">
        <stop offset="0" stop-color="#c0bfbc"/>
        <stop offset="0.0357143" stop-color="#f6f5f4"/>
        <stop offset="0.0713653" stop-color="#c0bfbc"/>
        <stop offset="0.928571" stop-color="#deddda"/>
        <stop offset="0.964286" stop-color="#c0bfbc"/>
        <stop offset="1" stop-color="#c0bfbc"/>
    </linearGradient>
    <clipPath id="b">
        <path d="m 12 12 h 104 v 100 h -104 z m 0 0"/>
    </clipPath>
    <clipPath id="c">
        <path d="m 20 12 h 36.265625 c 4.558594 0 7.578125 3.964844 7.578125 8 c 0 -4.007812 4.105469 -8 8.074219 -8 h 36.082031 c 4.433594 0 8 3.566406 8 8 v 76 c 0 4.433594 -3.566406 8 -8 8 h -35.804688 c -4.273437 0 -8.097656 3.160156 -8.097656 8 c 0 -4.828125 -3.332031 -8 -8.171875 -8 h -35.925781 c -4.433594 0 -8 -3.566406 -8 -8 v -76 c 0 -4.433594 3.566406 -8 8 -8 z m 0 0"/>
    </clipPath>
    <linearGradient id="d" gradientUnits="userSpaceOnUse" x1="12" x2="116" y1="62" y2="62">
        <stop offset="0" stop-color="#ffffff"/>
        <stop offset="0.419312" stop-color="#deddda"/>
        <stop offset="0.500451" stop-color="#c0bfbc"/>
        <stop offset="0.500451" stop-color="#ffffff"/>
        <stop offset="0.575083" stop-color="#deddda"/>
        <stop offset="1" stop-color="#ffffff"/>
    </linearGradient>
    <clipPath id="e">
        <path d="m 64 12 h 16 v 100 h -16 z m 0 0"/>
    </clipPath>
    <clipPath id="f">
        <path d="m 20 12 h 36.265625 c 4.558594 0 7.578125 3.964844 7.578125 8 c 0 -4.007812 4.105469 -8 8.074219 -8 h 36.082031 c 4.433594 0 8 3.566406 8 8 v 76 c 0 4.433594 -3.566406 8 -8 8 h -35.804688 c -4.273437 0 -8.097656 3.160156 -8.097656 8 c 0 -4.828125 -3.332031 -8 -8.171875 -8 h -35.925781 c -4.433594 0 -8 -3.566406 -8 -8 v -76 c 0 -4.433594 3.566406 -8 8 -8 z m 0 0"/>
    </clipPath>
    <clipPath id="g">
        <path d="m 48 12 h 16 v 100 h -16 z m 0 0"/>
    </clipPath>
    <clipPath id="h">
        <path d="m 20 12 h 36.265625 c 4.558594 0 7.578125 3.964844 7.578125 8 c 0 -4.007812 4.105469 -8 8.074219 -8 h 36.082031 c 4.433594 0 8 3.566406 8 8 v 76 c 0 4.433594 -3.566406 8 -8 8 h -35.804688 c -4.273437 0 -8.097656 3.160156 -8.097656 8 c 0 -4.828125 -3.332031 -8 -8.171875 -8 h -35.925781 c -4.433594 0 -8 -3.566406 -8 -8 v -76 c 0 -4.433594 3.566406 -8 8 -8 z m 0 0"/>
    </clipPath>
    <clipPath id="i">
        <path d="m 68 20 h 4 v 4 h -4 z m 0 0"/>
    </clipPath>
    <clipPath id="j">
        <path d="m 20 12 h 36.265625 c 4.558594 0 7.578125 3.964844 7.578125 8 c 0 -4.007812 4.105469 -8 8.074219 -8 h 36.082031 c 4.433594 0 8 3.566406 8 8 v 76 c 0 4.433594 -3.566406 8 -8 8 h -35.804688 c -4.273437 0 -8.097656 3.160156 -8.097656 8 c 0 -4.828125 -3.332031 -8 -8.171875 -8 h -35.925781 c -4.433594 0 -8 -3.566406 -8 -8 v -76 c 0 -4.433594 3.566406 -8 8 -8 z m 0 0"/>
    </clipPath>
    <clipPath id="k">
        <path d="m 68 82 h 4 v 4 h -4 z m 0 0"/>
    </clipPath>
    <clipPath id="l">
        <path d="m 20 12 h 36.265625 c 4.558594 0 7.578125 3.964844 7.578125 8 c 0 -4.007812 4.105469 -8 8.074219 -8 h 36.082031 c 4.433594 0 8 3.566406 8 8 v 76 c 0 4.433594 -3.566406 8 -8 8 h -35.804688 c -4.273437 0 -8.097656 3.160156 -8.097656 8 c 0 -4.828125 -3.332031 -8 -8.171875 -8 h -35.925781 c -4.433594 0 -8 -3.566406 -8 -8 v -76 c 0 -4.433594 3.566406 -8 8 -8 z m 0 0"/>
    </clipPath>
    <clipPath id="m">
        <path d="m 68 90 h 4 v 4 h -4 z m 0 0"/>
    </clipPath>
    <clipPath id="n">
        <path d="m 20 12 h 36.265625 c 4.558594 0 7.578125 3.964844 7.578125 8 c 0 -4.007812 4.105469 -8 8.074219 -8 h 36.082031 c 4.433594 0 8 3.566406 8 8 v 76 c 0 4.433594 -3.566406 8 -8 8 h -35.804688 c -4.273437 0 -8.097656 3.160156 -8.097656 8 c 0 -4.828125 -3.332031 -8 -8.171875 -8 h -35.925781 c -4.433594 0 -8 -3.566406 -8 -8 v -76 c 0 -4.433594 3.566406 -8 8 -8 z m 0 0"/>
    </clipPath>
    <clipPath id="o">
        <path d="m 56 20 h 4 v 4 h -4 z m 0 0"/>
    </clipPath>
    <clipPath id="p">
        <path d="m 20 12 h 36.265625 c 4.558594 0 7.578125 3.964844 7.578125 8 c 0 -4.007812 4.105469 -8 8.074219 -8 h 36.082031 c 4.433594 0 8 3.566406 8 8 v 76 c 0 4.433594 -3.566406 8 -8 8 h -35.804688 c -4.273437 0 -8.097656 3.160156 -8.097656 8 c 0 -4.828125 -3.332031 -8 -8.171875 -8 h -35.925781 c -4.433594 0 -8 -3.566406 -8 -8 v -76 c 0 -4.433594 3.566406 -8 8 -8 z m 0 0"/>
    </clipPath>
    <clipPath id="q">
        <path d="m 56 90 h 4 v 4 h -4 z m 0 0"/>
    </clipPath>
    <clipPath id="r">
        <path d="m 20 12 h 36.265625 c 4.558594 0 7.578125 3.964844 7.578125 8 c 0 -4.007812 4.105469 -8 8.074219 -8 h 36.082031 c 4.433594 0 8 3.566406 8 8 v 76 c 0 4.433594 -3.566406 8 -8 8 h -35.804688 c -4.273437 0 -8.097656 3.160156 -8.097656 8 c 0 -4.828125 -3.332031 -8 -8.171875 -8 h -35.925781 c -4.433594 0 -8 -3.566406 -8 -8 v -76 c 0 -4.433594 3.566406 -8 8 -8 z m 0 0"/>
    </clipPath>
    <clipPath id="s">
        <path d="m 12 60 h 104 v 24 h -104 z m 0 0"/>
    </clipPath>
    <clipPath id="t">
        <path d="m 20 12 h 36.265625 c 4.558594 0 7.578125 3.964844 7.578125 8 c 0 -4.007812 4.105469 -8 8.074219 -8 h 36.082031 c 4.433594 0 8 3.566406 8 8 v 76 c 0 4.433594 -3.566406 8 -8 8 h -35.804688 c -4.273437 0 -8.097656 3.160156 -8.097656 8 c 0 -4.828125 -3.332031 -8 -8.171875 -8 h -35.925781 c -4.433594 0 -8 -3.566406 -8 -8 v -76 c 0 -4.433594 3.566406 -8 8 -8 z m 0 0"/>
    </clipPath>
    <clipPath id="u">
        <path d="m 12 28 h 104 v 30 h -104 z m 0 0"/>
    </clipPath>
    <clipPath id="v">
        <path d="m 20 12 h 36.265625 c 4.558594 0 7.578125 3.964844 7.578125 8 c 0 -4.007812 4.105469 -8 8.074219 -8 h 36.082031 c 4.433594 0 8 3.566406 8 8 v 76 c 0 4.433594 -3.566406 8 -8 8 h -35.804688 c -4.273437 0 -8.097656 3.160156 -8.097656 8 c 0 -4.828125 -3.332031 -8 -8.171875 -8 h -35.925781 c -4.433594 0 -8 -3.566406 -8 -8 v -76 c 0 -4.433594 3.566406 -8 8 -8 z m 0 0"/>
    </clipPath>
    <clipPath id="w">
        <path d="m 15 55 h 41 v 42 h -41 z m 0 0"/>
    </clipPath>
    <clipPath id="x">
        <path d="m 20 12 h 36.265625 c 4.558594 0 7.578125 3.964844 7.578125 8 c 0 -4.007812 4.105469 -8 8.074219 -8 h 36.082031 c 4.433594 0 8 3.566406 8 8 v 76 c 0 4.433594 -3.566406 8 -8 8 h -35.804688 c -4.273437 0 -8.097656 3.160156 -8.097656 8 c 0 -4.828125 -3.332031 -8 -8.171875 -8 h -35.925781 c -4.433594 0 -8 -3.566406 -8 -8 v -76 c 0 -4.433594 3.566406 -8 8 -8 z m 0 0"/>
    </clipPath>
    <clipPath id="y">
        <path d="m 22 62 h 27 v 28 h -27 z m 0 0"/>
    </clipPath>
    <clipPath id="z">
        <path d="m 20 12 h 36.265625 c 4.558594 0 7.578125 3.964844 7.578125 8 c 0 -4.007812 4.105469 -8 8.074219 -8 h 36.082031 c 4.433594 0 8 3.566406 8 8 v 76 c 0 4.433594 -3.566406 8 -8 8 h -35.804688 c -4.273437 0 -8.097656 3.160156 -8.097656 8 c 0 -4.828125 -3.332031 -8 -8.171875 -8 h -35.925781 c -4.433594 0 -8 -3.566406 -8 -8 v -76 c 0 -4.433594 3.566406 -8 8 -8 z m 0 0"/>
    </clipPath>
    <clipPath id="A">
        <path d="m 72 15 h 40 v 41 h -40 z m 0 0"/>
    </clipPath>
    <clipPath id="B">
        <path d="m 20 12 h 36.265625 c 4.558594 0 7.578125 3.964844 7.578125 8 c 0 -4.007812 4.105469 -8 8.074219 -8 h 36.082031 c 4.433594 0 8 3.566406 8 8 v 76 c 0 4.433594 -3.566406 8 -8 8 h -35.804688 c -4.273437 0 -8.097656 3.160156 -8.097656 8 c 0 -4.828125 -3.332031 -8 -8.171875 -8 h -35.925781 c -4.433594 0 -8 -3.566406 -8 -8 v -76 c 0 -4.433594 3.566406 -8 8 -8 z m 0 0"/>
    </clipPath>
    <clipPath id="C">
        <path d="m 79 22 h 26 v 27 h -26 z m 0 0"/>
    </clipPath>
    <clipPath id="D">
        <path d="m 20 12 h 36.265625 c 4.558594 0 7.578125 3.964844 7.578125 8 c 0 -4.007812 4.105469 -8 8.074219 -8 h 36.082031 c 4.433594 0 8 3.566406 8 8 v 76 c 0 4.433594 -3.566406 8 -8 8 h -35.804688 c -4.273437 0 -8.097656 3.160156 -8.097656 8 c 0 -4.828125 -3.332031 -8 -8.171875 -8 h -35.925781 c -4.433594 0 -8 -3.566406 -8 -8 v -76 c 0 -4.433594 3.566406 -8 8 -8 z m 0 0"/>
    </clipPath>
    <clipPath id="E">
        <path d="m 56 27.136719 h 4 v 4 h -4 z m 0 0"/>
    </clipPath>
    <clipPath id="F">
        <path d="m 20 -42.863281 h 36.265625 c 4.558594 0 7.578125 3.964843 7.578125 8 c 0 -4.007813 4.105469 -8 8.074219 -8 h 36.082031 c 4.433594 0 8 3.566406 8 8 v 76 c 0 4.433593 -3.566406 8 -8 8 h -35.804688 c -4.273437 0 -8.097656 3.160156 -8.097656 8 c 0 -4.828125 -3.332031 -8 -8.171875 -8 h -35.925781 c -4.433594 0 -8 -3.566407 -8 -8 v -76 c 0 -4.433594 3.566406 -8 8 -8 z m 0 0"/>
    </clipPath>
    <clipPath id="G">
        <path d="m 12 12 h 104 v 100 h -104 z m 0 0"/>
    </clipPath>
    <clipPath id="H">
        <path d="m 20 12 h 36.265625 c 4.558594 0 7.578125 3.964844 7.578125 8 c 0 -4.007812 4.105469 -8 8.074219 -8 h 36.082031 c 4.433594 0 8 3.566406 8 8 v 76 c 0 4.433594 -3.566406 8 -8 8 h -35.804688 c -4.273437 0 -8.097656 3.160156 -8.097656 8 c 0 -4.828125 -3.332031 -8 -8.171875 -8 h -35.925781 c -4.433594 0 -8 -3.566406 -8 -8 v -76 c 0 -4.433594 3.566406 -8 8 -8 z m 0 0"/>
    </clipPath>
    <clipPath id="I">
        <path d="m 64 12 h 16 v 100 h -16 z m 0 0"/>
    </clipPath>
    <clipPath id="J">
        <path d="m 20 12 h 36.265625 c 4.558594 0 7.578125 3.964844 7.578125 8 c 0 -4.007812 4.105469 -8 8.074219 -8 h 36.082031 c 4.433594 0 8 3.566406 8 8 v 76 c 0 4.433594 -3.566406 8 -8 8 h -35.804688 c -4.273437 0 -8.097656 3.160156 -8.097656 8 c 0 -4.828125 -3.332031 -8 -8.171875 -8 h -35.925781 c -4.433594 0 -8 -3.566406 -8 -8 v -76 c 0 -4.433594 3.566406 -8 8 -8 z m 0 0"/>
    </clipPath>
    <clipPath id="K">
        <path d="m 48 12 h 16 v 100 h -16 z m 0 0"/>
    </clipPath>
    <clipPath id="L">
        <path d="m 20 12 h 36.265625 c 4.558594 0 7.578125 3.964844 7.578125 8 c 0 -4.007812 4.105469 -8 8.074219 -8 h 36.082031 c 4.433594 0 8 3.566406 8 8 v 76 c 0 4.433594 -3.566406 8 -8 8 h -35.804688 c -4.273437 0 -8.097656 3.160156 -8.097656 8 c 0 -4.828125 -3.332031 -8 -8.171875 -8 h -35.925781 c -4.433594 0 -8 -3.566406 -8 -8 v -76 c 0 -4.433594 3.566406 -8 8 -8 z m 0 0"/>
    </clipPath>
    <clipPath id="M">
        <path d="m 68 20 h 4 v 4 h -4 z m 0 0"/>
    </clipPath>
    <clipPath id="N">
        <path d="m 20 12 h 36.265625 c 4.558594 0 7.578125 3.964844 7.578125 8 c 0 -4.007812 4.105469 -8 8.074219 -8 h 36.082031 c 4.433594 0 8 3.566406 8 8 v 76 c 0 4.433594 -3.566406 8 -8 8 h -35.804688 c -4.273437 0 -8.097656 3.160156 -8.097656 8 c 0 -4.828125 -3.332031 -8 -8.171875 -8 h -35.925781 c -4.433594 0 -8 -3.566406 -8 -8 v -76 c 0 -4.433594 3.566406 -8 8 -8 z m 0 0"/>
    </clipPath>
    <clipPath id="O">
        <path d="m 68 82 h 4 v 4 h -4 z m 0 0"/>
    </clipPath>
    <clipPath id="P">
        <path d="m 20 12 h 36.265625 c 4.558594 0 7.578125 3.964844 7.578125 8 c 0 -4.007812 4.105469 -8 8.074219 -8 h 36.082031 c 4.433594 0 8 3.566406 8 8 v 76 c 0 4.433594 -3.566406 8 -8 8 h -35.804688 c -4.273437 0 -8.097656 3.160156 -8.097656 8 c 0 -4.828125 -3.332031 -8 -8.171875 -8 h -35.925781 c -4.433594 0 -8 -3.566406 -8 -8 v -76 c 0 -4.433594 3.566406 -8 8 -8 z m 0 0"/>
    </clipPath>
    <clipPath id="Q">
        <path d="m 68 90 h 4 v 4 h -4 z m 0 0"/>
    </clipPath>
    <clipPath id="R">
        <path d="m 20 12 h 36.265625 c 4.558594 0 7.578125 3.964844 7.578125 8 c 0 -4.007812 4.105469 -8 8.074219 -8 h 36.082031 c 4.433594 0 8 3.566406 8 8 v 76 c 0 4.433594 -3.566406 8 -8 8 h -35.804688 c -4.273437 0 -8.097656 3.160156 -8.097656 8 c 0 -4.828125 -3.332031 -8 -8.171875 -8 h -35.925781 c -4.433594 0 -8 -3.566406 -8 -8 v -76 c 0 -4.433594 3.566406 -8 8 -8 z m 0 0"/>
    </clipPath>
    <clipPath id="S">
        <path d="m 56 20 h 4 v 4 h -4 z m 0 0"/>
    </clipPath>
    <clipPath id="T">
        <path d="m 20 12 h 36.265625 c 4.558594 0 7.578125 3.964844 7.578125 8 c 0 -4.007812 4.105469 -8 8.074219 -8 h 36.082031 c 4.433594 0 8 3.566406 8 8 v 76 c 0 4.433594 -3.566406 8 -8 8 h -35.804688 c -4.273437 0 -8.097656 3.160156 -8.097656 8 c 0 -4.828125 -3.332031 -8 -8.171875 -8 h -35.925781 c -4.433594 0 -8 -3.566406 -8 -8 v -76 c 0 -4.433594 3.566406 -8 8 -8 z m 0 0"/>
    </clipPath>
    <clipPath id="U">
        <path d="m 56 90 h 4 v 4 h -4 z m 0 0"/>
    </clipPath>
    <clipPath id="V">
        <path d="m 20 12 h 36.265625 c 4.558594 0 7.578125 3.964844 7.578125 8 c 0 -4.007812 4.105469 -8 8.074219 -8 h 36.082031 c 4.433594 0 8 3.566406 8 8 v 76 c 0 4.433594 -3.566406 8 -8 8 h -35.804688 c -4.273437 0 -8.097656 3.160156 -8.097656 8 c 0 -4.828125 -3.332031 -8 -8.171875 -8 h -35.925781 c -4.433594 0 -8 -3.566406 -8 -8 v -76 c 0 -4.433594 3.566406 -8 8 -8 z m 0 0"/>
    </clipPath>
    <clipPath id="W">
        <path d="m 12 60 h 104 v 24 h -104 z m 0 0"/>
    </clipPath>
    <clipPath id="X">
        <path d="m 20 12 h 36.265625 c 4.558594 0 7.578125 3.964844 7.578125 8 c 0 -4.007812 4.105469 -8 8.074219 -8 h 36.082031 c 4.433594 0 8 3.566406 8 8 v 76 c 0 4.433594 -3.566406 8 -8 8 h -35.804688 c -4.273437 0 -8.097656 3.160156 -8.097656 8 c 0 -4.828125 -3.332031 -8 -8.171875 -8 h -35.925781 c -4.433594 0 -8 -3.566406 -8 -8 v -76 c 0 -4.433594 3.566406 -8 8 -8 z m 0 0"/>
    </clipPath>
    <clipPath id="Y">
        <path d="m 12 28 h 104 v 30 h -104 z m 0 0"/>
    </clipPath>
    <clipPath id="Z">
        <path d="m 20 12 h 36.265625 c 4.558594 0 7.578125 3.964844 7.578125 8 c 0 -4.007812 4.105469 -8 8.074219 -8 h 36.082031 c 4.433594 0 8 3.566406 8 8 v 76 c 0 4.433594 -3.566406 8 -8 8 h -35.804688 c -4.273437 0 -8.097656 3.160156 -8.097656 8 c 0 -4.828125 -3.332031 -8 -8.171875 -8 h -35.925781 c -4.433594 0 -8 -3.566406 -8 -8 v -76 c 0 -4.433594 3.566406 -8 8 -8 z m 0 0"/>
    </clipPath>
    <clipPath id="aa">
        <path d="m 15 55 h 41 v 42 h -41 z m 0 0"/>
    </clipPath>
    <clipPath id="ab">
        <path d="m 20 12 h 36.265625 c 4.558594 0 7.578125 3.964844 7.578125 8 c 0 -4.007812 4.105469 -8 8.074219 -8 h 36.082031 c 4.433594 0 8 3.566406 8 8 v 76 c 0 4.433594 -3.566406 8 -8 8 h -35.804688 c -4.273437 0 -8.097656 3.160156 -8.097656 8 c 0 -4.828125 -3.332031 -8 -8.171875 -8 h -35.925781 c -4.433594 0 -8 -3.566406 -8 -8 v -76 c 0 -4.433594 3.566406 -8 8 -8 z m 0 0"/>
    </clipPath>
    <clipPath id="ac">
        <path d="m 22 62 h 27 v 28 h -27 z m 0 0"/>
    </clipPath>
    <clipPath id="ad">
        <path d="m 20 12 h 36.265625 c 4.558594 0 7.578125 3.964844 7.578125 8 c 0 -4.007812 4.105469 -8 8.074219 -8 h 36.082031 c 4.433594 0 8 3.566406 8 8 v 76 c 0 4.433594 -3.566406 8 -8 8 h -35.804688 c -4.273437 0 -8.097656 3.160156 -8.097656 8 c 0 -4.828125 -3.332031 -8 -8.171875 -8 h -35.925781 c -4.433594 0 -8 -3.566406 -8 -8 v -76 c 0 -4.433594 3.566406 -8 8 -8 z m 0 0"/>
    </clipPath>
    <clipPath id="ae">
        <path d="m 72 15 h 40 v 41 h -40 z m 0 0"/>
    </clipPath>
    <clipPath id="af">
        <path d="m 20 12 h 36.265625 c 4.558594 0 7.578125 3.964844 7.578125 8 c 0 -4.007812 4.105469 -8 8.074219 -8 h 36.082031 c 4.433594 0 8 3.566406 8 8 v 76 c 0 4.433594 -3.566406 8 -8 8 h -35.804688 c -4.273437 0 -8.097656 3.160156 -8.097656 8 c 0 -4.828125 -3.332031 -8 -8.171875 -8 h -35.925781 c -4.433594 0 -8 -3.566406 -8 -8 v -76 c 0 -4.433594 3.566406 -8 8 -8 z m 0 0"/>
    </clipPath>
    <clipPath id="ag">
        <path d="m 79 22 h 26 v 27 h -26 z m 0 0"/>
    </clipPath>
    <clipPath id="ah">
        <path d="m 20 12 h 36.265625 c 4.558594 0 7.578125 3.964844 7.578125 8 c 0 -4.007812 4.105469 -8 8.074219 -8 h 36.082031 c 4.433594 0 8 3.566406 8 8 v 76 c 0 4.433594 -3.566406 8 -8 8 h -35.804688 c -4.273437 0 -8.097656 3.160156 -8.097656 8 c 0 -4.828125 -3.332031 -8 -8.171875 -8 h -35.925781 c -4.433594 0 -8 -3.566406 -8 -8 v -76 c 0 -4.433594 3.566406 -8 8 -8 z m 0 0"/>
    </clipPath>
    <clipPath id="ai">
        <path d="m 56 27.136719 h 4 v 4 h -4 z m 0 0"/>
    </clipPath>
    <clipPath id="aj">
        <path d="m 20 -42.863281 h 36.265625 c 4.558594 0 7.578125 3.964843 7.578125 8 c 0 -4.007813 4.105469 -8 8.074219 -8 h 36.082031 c 4.433594 0 8 3.566406 8 8 v 76 c 0 4.433593 -3.566406 8 -8 8 h -35.804688 c -4.273437 0 -8.097656 3.160156 -8.097656 8 c 0 -4.828125 -3.332031 -8 -8.171875 -8 h -35.925781 c -4.433594 0 -8 -3.566407 -8 -8 v -76 c 0 -4.433594 3.566406 -8 8 -8 z m 0 0"/>
    </clipPath>
    <clipPath id="ak">
        <rect height="128" width="128"/>
    </clipPath>
    <clipPath id="al">
        <rect height="128" width="128"/>
    </clipPath>
    <filter id="am" height="100%" width="100%" x="0%" y="0%">
        <feColorMatrix in="SourceGraphic" type="matrix" values="0 0 0 0 1 0 0 0 0 1 0 0 0 0 1 0 0 0 1 0"/>
    </filter>
    <mask id="an">
        <g clip-path="url(#al)" filter="url(#am)">
            <g clip-path="url(#ak)">
                <path d="m 20 40 h 88 c 4.417969 0 8 3.582031 8 8 v 60 c 0 4.417969 -3.582031 8 -8 8 h -88 c -4.417969 0 -8 -3.582031 -8 -8 v -60 c 0 -4.417969 3.582031 -8 8 -8 z m 0 0" fill="url(#a)"/>
                <g clip-path="url(#G)">
                    <g clip-path="url(#H)">
                        <path d="m 20 12 h 36.265625 c 4.558594 0 7.578125 3.964844 7.578125 8 c 0 -4.007812 4.105469 -8 8.074219 -8 h 36.082031 c 4.433594 0 8 3.566406 8 8 v 76 c 0 4.433594 -3.566406 8 -8 8 h -35.804688 c -4.273437 0 -8.097656 3.160156 -8.097656 8 c 0 -4.828125 -3.332031 -8 -8.171875 -8 h -35.925781 c -4.433594 0 -8 -3.566406 -8 -8 v -76 c 0 -4.433594 3.566406 -8 8 -8 z m 0 0" fill="url(#d)"/>
                    </g>
                </g>
                <g clip-path="url(#I)">
                    <g clip-path="url(#J)">
                        <path d="m 65 0 h 14 c 0.550781 0 1 0.449219 1 1 v 110 c 0 0.550781 -0.449219 1 -1 1 h -14 c -0.550781 0 -1 -0.449219 -1 -1 v -110 c 0 -0.550781 0.449219 -1 1 -1 z m 0 0" fill="#77767b" fill-opacity="0.226754"/>
                    </g>
                </g>
                <g clip-path="url(#K)">
                    <g clip-path="url(#L)">
                        <path d="m 49 0 h 14 c 0.550781 0 1 0.449219 1 1 v 110 c 0 0.550781 -0.449219 1 -1 1 h -14 c -0.550781 0 -1 -0.449219 -1 -1 v -110 c 0 -0.550781 0.449219 -1 1 -1 z m 0 0" fill="#77767b" fill-opacity="0.226754"/>
                    </g>
                </g>
                <g clip-path="url(#M)">
                    <g clip-path="url(#N)">
                        <path d="m 70 20 c 1.105469 0 2 0.894531 2 2 s -0.894531 2 -2 2 s -2 -0.894531 -2 -2 s 0.894531 -2 2 -2 z m 0 0" fill="#9a9996"/>
                    </g>
                </g>
                <g clip-path="url(#O)">
                    <g clip-path="url(#P)">
                        <path d="m 70 82 c 1.105469 0 2 0.894531 2 2 s -0.894531 2 -2 2 s -2 -0.894531 -2 -2 s 0.894531 -2 2 -2 z m 0 0" fill="#9a9996"/>
                    </g>
                </g>
                <g clip-path="url(#Q)">
                    <g clip-path="url(#R)">
                        <path d="m 70 90 c 1.105469 0 2 0.894531 2 2 s -0.894531 2 -2 2 s -2 -0.894531 -2 -2 s 0.894531 -2 2 -2 z m 0 0" fill="#9a9996"/>
                    </g>
                </g>
                <g clip-path="url(#S)">
                    <g clip-path="url(#T)">
                        <path d="m 58 20 c 1.105469 0 2 0.894531 2 2 s -0.894531 2 -2 2 s -2 -0.894531 -2 -2 s 0.894531 -2 2 -2 z m 0 0" fill="#9a9996"/>
                    </g>
                </g>
                <g clip-path="url(#U)">
                    <g clip-path="url(#V)">
                        <path d="m 58 90 c 1.105469 0 2 0.894531 2 2 s -0.894531 2 -2 2 s -2 -0.894531 -2 -2 s 0.894531 -2 2 -2 z m 0 0" fill="#9a9996"/>
                    </g>
                </g>
                <g clip-path="url(#W)">
                    <g clip-path="url(#X)">
                        <path d="m 62.027344 64.976562 l -2.589844 2.160157 c -2.222656 1.851562 -5.019531 2.863281 -7.910156 2.863281 h -41.527344 v 14 h 41.652344 c 2.777344 0 4.957031 -0.175781 8.921875 -3.28125 l 2.511719 -1.972656 c 2.652343 -3.027344 6.933593 -5.609375 11.976562 -5.722656 h 43.9375 v -13.023438 h -43.226562 c -5.023438 0 -9.886719 1.761719 -13.746094 4.976562 z m 0 0" fill="#554400" fill-opacity="0.7"/>
                    </g>
                </g>
                <g clip-path="url(#Y)">
                    <g clip-path="url(#Z)">
                        <path d="m 65.171875 30.828125 l -3.515625 3.515625 c -3.621094 3.621094 -8.535156 5.65625 -13.65625 5.65625 h -38 v 18 h 38 c 4.902344 0 11.007812 -1.589844 14.460938 -5.074219 l 3.492187 -3.523437 c 1.726563 -1.738282 4.386719 -2.550782 6.839844 -2.550782 h 47.207031 v -18.851562 h -48 c -2.5625 0 -5.015625 1.015625 -6.828125 2.828125 z m 0 0" fill="#ffcc00" fill-opacity="0.7"/>
                    </g>
                </g>
                <g clip-path="url(#aa)">
                    <g clip-path="url(#ab)">
                        <path d="m 56 76.050781 c 0 11.085938 -8.988281 20.074219 -20.078125 20.074219 c -11.085937 0 -20.074219 -8.988281 -20.074219 -20.074219 c 0 -11.089843 8.988282 -20.078125 20.074219 -20.078125 c 11.089844 0 20.078125 8.988282 20.078125 20.078125 z m 0 0" fill="#aa8800"/>
                    </g>
                </g>
                <g clip-path="url(#ac)">
                    <g clip-path="url(#ad)">
                        <path d="m 34.085938 62.957031 c 0.65625 0.023438 1.28125 0.300781 1.75 0.765625 l 10.414062 10.421875 c 0.046875 0.039063 0.089844 0.082031 0.132812 0.125 l 1.777344 1.78125 l -1.796875 1.792969 c -0.039062 0.042969 -0.082031 0.085938 -0.125 0.128906 l -10.402343 10.402344 c -1.023438 1.023438 -2.683594 1.023438 -3.703126 0 c -1.023437 -1.019531 -1.023437 -2.679688 0 -3.703125 l 6.003907 -6.003906 h -12.882813 c -1.445312 0 -2.617187 -1.171875 -2.617187 -2.617188 c 0 -1.449219 1.171875 -2.621093 2.617187 -2.621093 h 12.882813 l -6.003907 -6.003907 c -1.023437 -1.023437 -1.023437 -2.679687 0 -3.703125 c 0.46875 -0.472656 1.105469 -0.746094 1.773438 -0.765625 c 0.058594 -0.003906 0.117188 -0.003906 0.179688 0 z m 0 0" fill="#ffffff"/>
                    </g>
                </g>
                <g clip-path="url(#ae)">
                    <g clip-path="url(#af)">
                        <path d="m 112 35.875 c 0 11.046875 -8.953125 20 -20 20 s -20 -8.953125 -20 -20 s 8.953125 -20 20 -20 s 20 8.953125 20 20 z m 0 0" fill="#f1e86b"/>
                    </g>
                </g>
                <g clip-path="url(#ag)">
                    <g clip-path="url(#ah)">
                        <path d="m 93.097656 22.832031 c -0.65625 0.027344 -1.277344 0.300781 -1.742187 0.765625 l -10.378907 10.378906 c -0.042968 0.039063 -0.085937 0.082032 -0.128906 0.125 l -1.773437 1.773438 l 1.792969 1.789062 c 0.039062 0.042969 0.082031 0.085938 0.125 0.128907 l 10.363281 10.363281 c 1.019531 1.015625 2.667969 1.015625 3.6875 0 c 1.019531 -1.019531 1.019531 -2.671875 0 -3.691406 l -5.980469 -5.980469 h 12.832031 c 1.441407 0 2.609375 -1.167969 2.609375 -2.609375 s -1.167968 -2.609375 -2.609375 -2.609375 h -12.832031 l 5.980469 -5.980469 c 1.019531 -1.019531 1.019531 -2.671875 0 -3.6875 c -0.46875 -0.472656 -1.101563 -0.746094 -1.765625 -0.765625 c -0.058594 0 -0.121094 0 -0.179688 0 z m 0 0" fill="#554400"/>
                    </g>
                </g>
                <g clip-path="url(#ai)">
                    <g clip-path="url(#aj)">
                        <path d="m 58 27.136719 c 1.105469 0 2 0.894531 2 2 s -0.894531 2 -2 2 s -2 -0.894531 -2 -2 s 0.894531 -2 2 -2 z m 0 0" fill="#9a9996"/>
                    </g>
                </g>
            </g>
        </g>
    </mask>
    <mask id="ao">
        <g filter="url(#am)">
            <rect fill-opacity="0.8" height="128" width="128"/>
        </g>
    </mask>
    <linearGradient id="ap" gradientTransform="matrix(0 0.37 -0.98462 0 295.38501 -30.360001)" gradientUnits="userSpaceOnUse" x1="300" x2="428" y1="235" y2="235">
        <stop offset="0" stop-color="#f9f06b"/>
        <stop offset="1" stop-color="#f5c211"/>
    </linearGradient>
    <clipPath id="aq">
        <rect height="128" width="128"/>
    </clipPath>
    <clipPath id="ar">
        <rect height="128" width="128"/>
    </clipPath>
    <path d="m 20 40 h 88 c 4.417969 0 8 3.582031 8 8 v 60 c 0 4.417969 -3.582031 8 -8 8 h -88 c -4.417969 0 -8 -3.582031 -8 -8 v -60 c 0 -4.417969 3.582031 -8 8 -8 z m 0 0" fill="url(#a)"/>
    <g clip-path="url(#b)">
        <g clip-path="url(#c)">
            <path d="m 20 12 h 36.265625 c 4.558594 0 7.578125 3.964844 7.578125 8 c 0 -4.007812 4.105469 -8 8.074219 -8 h 36.082031 c 4.433594 0 8 3.566406 8 8 v 76 c 0 4.433594 -3.566406 8 -8 8 h -35.804688 c -4.273437 0 -8.097656 3.160156 -8.097656 8 c 0 -4.828125 -3.332031 -8 -8.171875 -8 h -35.925781 c -4.433594 0 -8 -3.566406 -8 -8 v -76 c 0 -4.433594 3.566406 -8 8 -8 z m 0 0" fill="url(#d)"/>
        </g>
    </g>
    <g clip-path="url(#e)">
        <g clip-path="url(#f)">
            <path d="m 65 0 h 14 c 0.550781 0 1 0.449219 1 1 v 110 c 0 0.550781 -0.449219 1 -1 1 h -14 c -0.550781 0 -1 -0.449219 -1 -1 v -110 c 0 -0.550781 0.449219 -1 1 -1 z m 0 0" fill="#77767b" fill-opacity="0.226754"/>
        </g>
    </g>
    <g clip-path="url(#g)">
        <g clip-path="url(#h)">
            <path d="m 49 0 h 14 c 0.550781 0 1 0.449219 1 1 v 110 c 0 0.550781 -0.449219 1 -1 1 h -14 c -0.550781 0 -1 -0.449219 -1 -1 v -110 c 0 -0.550781 0.449219 -1 1 -1 z m 0 0" fill="#77767b" fill-opacity="0.226754"/>
        </g>
    </g>
    <g clip-path="url(#i)">
        <g clip-path="url(#j)">
            <path d="m 70 20 c 1.105469 0 2 0.894531 2 2 s -0.894531 2 -2 2 s -2 -0.894531 -2 -2 s 0.894531 -2 2 -2 z m 0 0" fill="#9a9996"/>
        </g>
    </g>
    <g clip-path="url(#k)">
        <g clip-path="url(#l)">
            <path d="m 70 82 c 1.105469 0 2 0.894531 2 2 s -0.894531 2 -2 2 s -2 -0.894531 -2 -2 s 0.894531 -2 2 -2 z m 0 0" fill="#9a9996"/>
        </g>
    </g>
    <g clip-path="url(#m)">
        <g clip-path="url(#n)">
            <path d="m 70 90 c 1.105469 0 2 0.894531 2 2 s -0.894531 2 -2 2 s -2 -0.894531 -2 -2 s 0.894531 -2 2 -2 z m 0 0" fill="#9a9996"/>
        </g>
    </g>
    <g clip-path="url(#o)">
        <g clip-path="url(#p)">
            <path d="m 58 20 c 1.105469 0 2 0.894531 2 2 s -0.894531 2 -2 2 s -2 -0.894531 -2 -2 s 0.894531 -2 2 -2 z m 0 0" fill="#9a9996"/>
        </g>
    </g>
    <g clip-path="url(#q)">
        <g clip-path="url(#r)">
            <path d="m 58 90 c 1.105469 0 2 0.894531 2 2 s -0.894531 2 -2 2 s -2 -0.894531 -2 -2 s 0.894531 -2 2 -2 z m 0 0" fill="#9a9996"/>
        </g>
    </g>
    <g clip-path="url(#s)">
        <g clip-path="url(#t)">
            <path d="m 62.027344 64.976562 l -2.589844 2.160157 c -2.222656 1.851562 -5.019531 2.863281 -7.910156 2.863281 h -41.527344 v 14 h 41.652344 c 2.777344 0 4.957031 -0.175781 8.921875 -3.28125 l 2.511719 -1.972656 c 2.652343 -3.027344 6.933593 -5.609375 11.976562 -5.722656 h 43.9375 v -13.023438 h -43.226562 c -5.023438 0 -9.886719 1.761719 -13.746094 4.976562 z m 0 0" fill="#554400" fill-opacity="0.7"/>
        </g>
    </g>
    <g clip-path="url(#u)">
        <g clip-path="url(#v)">
            <path d="m 65.171875 30.828125 l -3.515625 3.515625 c -3.621094 3.621094 -8.535156 5.65625 -13.65625 5.65625 h -38 v 18 h 38 c 4.902344 0 11.007812 -1.589844 14.460938 -5.074219 l 3.492187 -3.523437 c 1.726563 -1.738282 4.386719 -2.550782 6.839844 -2.550782 h 47.207031 v -18.851562 h -48 c -2.5625 0 -5.015625 1.015625 -6.828125 2.828125 z m 0 0" fill="#ffcc00" fill-opacity="0.7"/>
        </g>
    </g>
    <g clip-path="url(#w)">
        <g clip-path="url(#x)">
            <path d="m 56 76.050781 c 0 11.085938 -8.988281 20.074219 -20.078125 20.074219 c -11.085937 0 -20.074219 -8.988281 -20.074219 -20.074219 c 0 -11.089843 8.988282 -20.078125 20.074219 -20.078125 c 11.089844 0 20.078125 8.988282 20.078125 20.078125 z m 0 0" fill="#aa8800"/>
        </g>
    </g>
    <g clip-path="url(#y)">
        <g clip-path="url(#z)">
            <path d="m 34.085938 62.957031 c 0.65625 0.023438 1.28125 0.300781 1.75 0.765625 l 10.414062 10.421875 c 0.046875 0.039063 0.089844 0.082031 0.132812 0.125 l 1.777344 1.78125 l -1.796875 1.792969 c -0.039062 0.042969 -0.082031 0.085938 -0.125 0.128906 l -10.402343 10.402344 c -1.023438 1.023438 -2.683594 1.023438 -3.703126 0 c -1.023437 -1.019531 -1.023437 -2.679688 0 -3.703125 l 6.003907 -6.003906 h -12.882813 c -1.445312 0 -2.617187 -1.171875 -2.617187 -2.617188 c 0 -1.449219 1.171875 -2.621093 2.617187 -2.621093 h 12.882813 l -6.003907 -6.003907 c -1.023437 -1.023437 -1.023437 -2.679687 0 -3.703125 c 0.46875 -0.472656 1.105469 -0.746094 1.773438 -0.765625 c 0.058594 -0.003906 0.117188 -0.003906 0.179688 0 z m 0 0" fill="#ffffff"/>
        </g>
    </g>
    <g clip-path="url(#A)">
        <g clip-path="url(#B)">
            <path d="m 112 35.875 c 0 11.046875 -8.953125 20 -20 20 s -20 -8.953125 -20 -20 s 8.953125 -20 20 -20 s 20 8.953125 20 20 z m 0 0" fill="#f1e86b"/>
        </g>
    </g>
    <g clip-path="url(#C)">
        <g clip-path="url(#D)">
            <path d="m 93.097656 22.832031 c -0.65625 0.027344 -1.277344 0.300781 -1.742187 0.765625 l -10.378907 10.378906 c -0.042968 0.039063 -0.085937 0.082032 -0.128906 0.125 l -1.773437 1.773438 l 1.792969 1.789062 c 0.039062 0.042969 0.082031 0.085938 0.125 0.128907 l 10.363281 10.363281 c 1.019531 1.015625 2.667969 1.015625 3.6875 0 c 1.019531 -1.019531 1.019531 -2.671875 0 -3.691406 l -5.980469 -5.980469 h 12.832031 c 1.441407 0 2.609375 -1.167969 2.609375 -2.609375 s -1.167968 -2.609375 -2.609375 -2.609375 h -12.832031 l 5.980469 -5.980469 c 1.019531 -1.019531 1.019531 -2.671875 0 -3.6875 c -0.46875 -0.472656 -1.101563 -0.746094 -1.765625 -0.765625 c -0.058594 0 -0.121094 0 -0.179688 0 z m 0 0" fill="#554400"/>
        </g>
    </g>
    <g clip-path="url(#E)">
        <g clip-path="url(#F)">
            <path d="m 58 27.136719 c 1.105469 0 2 0.894531 2 2 s -0.894531 2 -2 2 s -2 -0.894531 -2 -2 s 0.894531 -2 2 -2 z m 0 0" fill="#9a9996"/>
        </g>
    </g>
    <g clip-path="url(#ar)" mask="url(#an)">
        <g clip-path="url(#aq)" mask="url(#ao)">
            <path d="m 128 80.640625 v 47.359375 h -128 v -47.359375 z m 0 0" fill="url(#ap)"/>
            <path d="m 13.308594 80.640625 l 47.355468 47.359375 h 21.214844 l -47.359375 -47.359375 z m 42.421875 0 l 47.363281 47.359375 h 21.214844 l -47.363282 -47.359375 z m 42.429687 0 l 29.839844 29.839844 v -21.210938 l -8.628906 -8.628906 z m -98.160156 7.90625 v 21.214844 l 18.238281 18.238281 h 21.214844 z m 0 0"/>
        </g>
    </g>
</svg>
