<?xml version="1.0" encoding="UTF-8"?>
<svg height="16px" viewBox="0 0 16 16" width="16px" xmlns="http://www.w3.org/2000/svg">
    <path d="m 10.667969 1.03125 c -2.410157 0.007812 -4.363281 1.964844 -4.363281 4.375 c 0.003906 2.417969 1.960937 4.375 4.375 4.375 c 2.417968 0 4.375 -1.957031 4.375 -4.375 c 0.003906 -2.417969 -1.957032 -4.375 -4.375 -4.375 c -0.003907 -0.003906 -0.007813 -0.003906 -0.011719 0 z m 0.089843 1.921875 h 0.035157 c 0.144531 0.007813 0.28125 0.066406 0.382812 0.167969 c 0.21875 0.21875 0.21875 0.574218 0 0.796875 l -1 0.996093 h 2.261719 c 0.3125 0 0.5625 0.253907 0.5625 0.566407 c 0 0.308593 -0.25 0.5625 -0.5625 0.5625 h -2.261719 l 1.027344 1 c 0.21875 0.21875 0.21875 0.574219 0 0.792969 s -0.574219 0.21875 -0.796875 0 l -1.972656 -1.945313 c -0.007813 -0.007813 -0.019532 -0.015625 -0.027344 -0.027344 l -0.386719 -0.382812 l 0.386719 -0.386719 c 0.007812 -0.007812 0.015625 -0.015625 0.023438 -0.027344 l 1.949218 -1.945312 c 0.101563 -0.101563 0.234375 -0.160156 0.378906 -0.167969 z m 0 0"/>
    <path d="m 4.402344 5.875 c -2.511719 0 -4.546875 2.039062 -4.546875 4.546875 c 0 2.511719 2.035156 4.546875 4.546875 4.546875 c 2.507812 0 4.542968 -2.035156 4.542968 -4.546875 c 0 -2.507813 -2.035156 -4.542969 -4.542968 -4.546875 z m 0 0.890625 c 2.019531 0 3.65625 1.636719 3.652344 3.65625 c 0 2.019531 -1.636719 3.65625 -3.652344 3.65625 c -2.019532 0 -3.65625 -1.636719 -3.65625 -3.65625 s 1.636718 -3.65625 3.65625 -3.65625 z m 0 0"/>
    <path d="m 4.234375 7.765625 c 0.152344 0.007813 0.296875 0.070313 0.402344 0.179687 l 2.089843 2.089844 c 0.011719 0.007813 0.023438 0.019532 0.03125 0.027344 l 0.410157 0.410156 l -0.414063 0.414063 c -0.007812 0.011719 -0.019531 0.023437 -0.027344 0.03125 l -2.121093 2.085937 c -0.234375 0.238282 -0.617188 0.238282 -0.851563 0 c -0.238281 -0.234375 -0.238281 -0.617187 0 -0.851562 l 1.101563 -1.074219 h -2.425781 c -0.335938 0 -0.605469 -0.269531 -0.605469 -0.605469 c 0 -0.332031 0.269531 -0.601562 0.605469 -0.601562 h 2.425781 l -1.070313 -1.074219 c -0.238281 -0.234375 -0.238281 -0.617187 0 -0.851563 c 0.105469 -0.109374 0.253906 -0.175781 0.40625 -0.179687 z m 0 0"/>
</svg>